<?xml version="1.0" standalone="no"?><!DOCTYPE svg PUBLIC "-//W3C//DTD SVG 1.1//EN" "http://www.w3.org/Graphics/SVG/1.1/DTD/svg11.dtd"><svg t="1642054851817" class="icon" viewBox="0 0 1092 1024" version="1.1" xmlns="http://www.w3.org/2000/svg" p-id="1142" width="34.125" height="32" xmlns:xlink="http://www.w3.org/1999/xlink"><defs><style type="text/css"></style></defs><path d="M1058.133333 614.4H1024V443.733333A102.4 102.4 0 0 0 921.6 341.333333h-341.333333V273.066667H750.933333a68.266667 68.266667 0 0 0 68.266667-68.266667V68.266667a68.266667 68.266667 0 0 0-68.266667-68.266667H341.333333a68.266667 68.266667 0 0 0-68.266666 68.266667v136.533333a68.266667 68.266667 0 0 0 68.266666 68.266667h170.666667v68.266666h-341.333333A102.4 102.4 0 0 0 68.266667 443.733333V614.4H34.133333a34.133333 34.133333 0 0 0-34.133333 34.133333v341.333334a34.133333 34.133333 0 0 0 34.133333 34.133333h136.533334a34.133333 34.133333 0 0 0 34.133333-34.133333v-341.333334a34.133333 34.133333 0 0 0-34.133333-34.133333H136.533333V443.733333a34.133333 34.133333 0 0 1 34.133334-34.133333h341.333333v204.8H477.866667a34.133333 34.133333 0 0 0-34.133334 34.133333v341.333334a34.133333 34.133333 0 0 0 34.133334 34.133333h136.533333a34.133333 34.133333 0 0 0 34.133333-34.133333v-341.333334A34.133333 34.133333 0 0 0 614.4 614.4h-34.133333V409.6h341.333333a34.133333 34.133333 0 0 1 34.133333 34.133333V614.4h-34.133333a34.133333 34.133333 0 0 0-34.133333 34.133333v341.333334a34.133333 34.133333 0 0 0 34.133333 34.133333h136.533333a34.133333 34.133333 0 0 0 34.133334-34.133333v-341.333334a34.133333 34.133333 0 0 0-34.133334-34.133333zM341.333333 204.8V68.266667h409.6v136.533333H341.333333zM136.533333 955.733333H68.266667v-273.066666h68.266666z m443.733334 0h-68.266667v-273.066666h68.266667z m443.733333 0h-68.266667v-273.066666h68.266667z" p-id="1143" fill="#1296db"></path></svg>