<?xml version="1.0" standalone="no"?><!DOCTYPE svg PUBLIC "-//W3C//DTD SVG 1.1//EN" "http://www.w3.org/Graphics/SVG/1.1/DTD/svg11.dtd"><svg t="1642054000816" class="icon" viewBox="0 0 1024 1024" version="1.1" xmlns="http://www.w3.org/2000/svg" p-id="20726" xmlns:xlink="http://www.w3.org/1999/xlink" width="200" height="200"><defs><style type="text/css"></style></defs><path d="M501.9648 33.3312l-409.6 230.4A20.48 20.48 0 0 0 81.92 281.6v460.8a20.48 20.48 0 0 0 10.4448 17.8688l409.6 230.4a20.48 20.48 0 0 0 20.0704 0l409.6-230.4a20.48 20.48 0 0 0 10.4448-17.8688V279.9104a20.48 20.48 0 0 0-10.5472-17.92l-152.576-84.8896-3.8912-1.6384a20.48 20.48 0 0 0-16.0256 1.6384l-93.184 51.712V126.2592a20.48 20.48 0 0 0-10.3936-17.8688L522.0352 33.3312a20.48 20.48 0 0 0-20.0704 0z m9.984 41.3696l112.9472 63.488v125.44l0.3584 3.7888a20.48 20.48 0 0 0 30.1056 14.1312l113.5616-63.1296L901.12 291.9424v438.4256L512 949.248l-389.12-218.8288V293.5296l389.0688-218.8288z" fill="#000000" p-id="20727"></path><path d="M510.3616 498.944l397.568-219.0336v451.0208l-402.8928 226.2016v-118.784a10.24 10.24 0 0 1 5.12-8.8064l287.0272-166.2464V507.904l-276.8896 155.9552a10.24 10.24 0 0 1-15.2576-8.9088v-146.944a10.24 10.24 0 0 1 5.3248-9.0112zM650.0352 123.904L388.1984 267.5712a10.24 10.24 0 0 0 0 17.92l126.5664 69.632a10.24 10.24 0 0 0 9.9328 0l125.3376-70.6048V123.904zM102.4 281.6l206.7968 113.7664a30.72 30.72 0 0 1 15.872 26.88v439.9104L102.4 742.4v-460.8z" fill="#000000" p-id="20728"></path></svg>