<?xml version="1.0" standalone="no"?><!DOCTYPE svg PUBLIC "-//W3C//DTD SVG 1.1//EN" "http://www.w3.org/Graphics/SVG/1.1/DTD/svg11.dtd"><svg t="1642054084269" class="icon" viewBox="0 0 1365 1024" version="1.1" xmlns="http://www.w3.org/2000/svg" p-id="1005" xmlns:xlink="http://www.w3.org/1999/xlink" width="266.6015625" height="200"><defs><style type="text/css"></style></defs><path d="M1302.186667 203.946667L1194.666667 261.973333V170.666667a170.666667 170.666667 0 0 0-170.666667-170.666667H170.666667a170.666667 170.666667 0 0 0-170.666667 170.666667v682.666666a170.666667 170.666667 0 0 0 170.666667 170.666667h853.333333a170.666667 170.666667 0 0 0 170.666667-170.666667V762.026667l107.52 58.026666a42.666667 42.666667 0 0 0 63.146666-37.546666V241.493333a42.666667 42.666667 0 0 0-63.146666-37.546666zM1109.333333 853.333333a85.333333 85.333333 0 0 1-85.333333 85.333334H170.666667a85.333333 85.333333 0 0 1-85.333334-85.333334V170.666667a85.333333 85.333333 0 0 1 85.333334-85.333334h853.333333a85.333333 85.333333 0 0 1 85.333333 85.333334v682.666666z m170.666667-142.506666l-85.333333-45.226667V358.4l85.333333-45.226667z" p-id="1006"></path><path d="M256 256m-85.333333 0a85.333333 85.333333 0 1 0 170.666666 0 85.333333 85.333333 0 1 0-170.666666 0Z" p-id="1007"></path></svg>